<svg height="512pt" viewBox="0 -89 512 512" width="512pt" xmlns="http://www.w3.org/2000/svg"><path d="m496.996094 0h-481.992188c-8.285156 0-15.003906 6.71875-15.003906 15.003906v304.675782c0 8.285156 6.71875 15.003906 15.003906 15.003906h481.992188c8.285156 0 15.003906-6.71875 15.003906-15.003906v-304.675782c0-8.285156-6.71875-15.003906-15.003906-15.003906zm0 0" fill="#e6486d"/><path d="m496.996094 0h-241.054688v334.683594h241.054688c8.285156 0 15.003906-6.71875 15.003906-15.003906v-304.675782c0-8.285156-6.71875-15.003906-15.003906-15.003906zm0 0" fill="#e6486d"/><path d="m0 262.71875h512v30.007812h-512zm0 0" fill="#fff"/><path d="m0 189.464844h512v30.007812h-512zm0 0" fill="#fff"/><path d="m0 116.207031h512v30.007813h-512zm0 0" fill="#fff"/><path d="m0 42.953125h512v30.003906h-512zm0 0" fill="#fff"/><path d="m255.941406 262.71875h256.058594v30.007812h-256.058594zm0 0" fill="#b5c9f5"/><path d="m255.941406 189.464844h256.058594v30.007812h-256.058594zm0 0" fill="#b5c9f5"/><path d="m255.941406 116.207031h256.058594v30.007813h-256.058594zm0 0" fill="#b5c9f5"/><path d="m255.941406 42.953125h256.058594v30.003906h-256.058594zm0 0" fill="#b5c9f5"/><path d="m255.941406 0h-240.9375c-8.285156 0-15.003906 6.71875-15.003906 15.003906v174.460938h255.941406zm0 0" fill="#799ce3"/><g fill="#fbd43a"><path d="m84.730469 53.519531c0 8.113281-6.578125 14.691407-14.691407 14.691407-8.113281 0-14.691406-6.578126-14.691406-14.691407s6.578125-14.691406 14.691406-14.691406c8.113282 0 14.691407 6.578125 14.691407 14.691406zm0 0"/><path d="m135.460938 53.519531c0 8.113281-6.578126 14.691407-14.691407 14.691407s-14.691406-6.578126-14.691406-14.691407 6.578125-14.691406 14.691406-14.691406 14.691407 6.578125 14.691407 14.691406zm0 0"/><path d="m186.191406 53.519531c0 8.113281-6.578125 14.691407-14.691406 14.691407-8.117188 0-14.691406-6.578126-14.691406-14.691407s6.574218-14.691406 14.691406-14.691406c8.113281 0 14.691406 6.578125 14.691406 14.691406zm0 0"/><path d="m84.730469 94.734375c0 8.113281-6.578125 14.691406-14.691407 14.691406-8.113281 0-14.691406-6.578125-14.691406-14.691406 0-8.117187 6.578125-14.691406 14.691406-14.691406 8.113282 0 14.691407 6.574219 14.691407 14.691406zm0 0"/><path d="m135.460938 94.734375c0 8.113281-6.578126 14.691406-14.691407 14.691406s-14.691406-6.578125-14.691406-14.691406c0-8.117187 6.578125-14.691406 14.691406-14.691406s14.691407 6.574219 14.691407 14.691406zm0 0"/><path d="m186.191406 94.734375c0 8.113281-6.578125 14.691406-14.691406 14.691406-8.117188 0-14.691406-6.578125-14.691406-14.691406 0-8.117187 6.574218-14.691406 14.691406-14.691406 8.113281 0 14.691406 6.574219 14.691406 14.691406zm0 0"/><path d="m84.730469 135.945312c0 8.113282-6.578125 14.691407-14.691407 14.691407-8.113281 0-14.691406-6.578125-14.691406-14.691407 0-8.113281 6.578125-14.691406 14.691406-14.691406 8.113282 0 14.691407 6.578125 14.691407 14.691406zm0 0"/><path d="m135.460938 135.945312c0 8.113282-6.578126 14.691407-14.691407 14.691407s-14.691406-6.578125-14.691406-14.691407c0-8.113281 6.578125-14.691406 14.691406-14.691406s14.691407 6.578125 14.691407 14.691406zm0 0"/><path d="m186.191406 135.945312c0 8.113282-6.578125 14.691407-14.691406 14.691407-8.117188 0-14.691406-6.578125-14.691406-14.691407 0-8.113281 6.574218-14.691406 14.691406-14.691406 8.113281 0 14.691406 6.578125 14.691406 14.691406zm0 0"/></g></svg>